<?xml version="1.0" encoding="utf-8"?>
<!-- Generator: Adobe Illustrator 18.0.0, SVG Export Plug-In . SVG Version: 6.00 Build 0)  -->
<!DOCTYPE svg PUBLIC "-//W3C//DTD SVG 1.1//EN" "http://www.w3.org/Graphics/SVG/1.1/DTD/svg11.dtd">
<svg version="1.1" id="Layer_1" xmlns="http://www.w3.org/2000/svg" xmlns:xlink="http://www.w3.org/1999/xlink" x="0px" y="0px"
	 viewBox="0 0 425 100" enable-background="new 0 0 425 100" xml:space="preserve">
<g>
	<g>
		<path d="M38.8,31c0,0-0.2,0-0.2,0c0-0.3-0.1-0.5-0.2-0.7c-0.2-0.2-0.5-0.4-1.6-0.4c-0.2,0-0.4,0-0.4,0c0,0.1-0.1,0.5-0.1,1.2v2.5
			c0,1.9,0.1,2.2,0.2,2.2c0.1,0.1,0.4,0.1,0.8,0.2c0,0,0,0.3,0,0.3c-0.5,0-2.5,0-3,0c0,0,0-0.2,0-0.3c0.4,0,0.7-0.1,0.8-0.2
			c0.1-0.1,0.2-0.3,0.2-2.2v-2.5c0-0.7,0-1.1,0-1.2c-0.1,0-0.3,0-0.5,0c-1.1,0-1.4,0.1-1.6,0.4c-0.2,0.2-0.3,0.5-0.3,0.7
			c0,0-0.2,0-0.2,0c0.1-0.5,0.1-1.2,0.1-1.5c0,0,0,0,0.1,0c0.4,0.1,1.2,0.1,3,0.1c2.5,0,2.8-0.1,3-0.1c0,0,0.1,0,0.1,0
			C38.9,29.8,38.9,30.4,38.8,31z"/>
		<path d="M44.8,36.3c0,0,0-0.2,0-0.3c0.4,0,0.6-0.1,0.7-0.2c0.1-0.1,0.2-0.3,0.2-2.2V33h-4.1v0.6c0,1.9,0.1,2.2,0.2,2.2
			c0.1,0.1,0.3,0.1,0.7,0.2c0,0,0,0.3,0,0.3c-0.5,0-2.3,0-2.8,0c0,0,0-0.2,0-0.3c0.4,0,0.6-0.1,0.7-0.2c0.1-0.1,0.2-0.3,0.2-2.2
			v-1.5c0-1.9-0.1-2.2-0.2-2.2c-0.1-0.1-0.3-0.1-0.7-0.2c-0.1,0,0-0.2,0-0.2c0.5,0,2.3,0,2.8,0c0,0,0,0.2,0,0.2
			c-0.4,0.1-0.6,0.1-0.7,0.2c-0.1,0.1-0.2,0.3-0.2,2.2v0.5h4.1v-0.5c0-1.9-0.1-2.2-0.2-2.2c-0.1-0.1-0.3-0.1-0.7-0.2
			c0,0,0-0.2,0-0.2c0.5,0,2.3,0,2.8,0c0,0,0,0.2,0,0.2c-0.4,0.1-0.6,0.1-0.7,0.2c-0.1,0.1-0.2,0.3-0.2,2.2v1.5
			c0,1.9,0.1,2.2,0.2,2.2c0.1,0.1,0.3,0.1,0.7,0.2c0.1,0,0.1,0.3,0,0.3C47.1,36.3,45.2,36.3,44.8,36.3z"/>
		<path d="M53,36.1c-0.1,0.1-0.1,0.2-0.4,0.2c-0.6,0-1.4,0-2.2,0c-0.7,0-1.1,0-1.8,0c0,0,0-0.2,0-0.3c0.4,0,0.6-0.1,0.7-0.2
			c0.1-0.1,0.2-0.3,0.2-2.2v-1.5c0-1.9-0.1-2.2-0.2-2.2c-0.1-0.1-0.3-0.1-0.7-0.2c0,0,0-0.2,0-0.2c0.8,0,2.1,0,2.7,0
			c0.9,0,1.3,0,1.6,0c0.1,0,0.1,0,0.1,0c0,0.4-0.1,0.9-0.1,1.4c0,0.1-0.3,0-0.3,0c0-0.3-0.1-0.5-0.2-0.7c-0.2-0.2-0.5-0.3-1.2-0.3
			c-0.4,0-0.7,0-0.8,0c0,0.1,0,0.5,0,1.1v1.5h0.8c1,0,0.9-0.2,1-0.6c0,0,0.3,0,0.3,0c0,0.3-0.1,1.5-0.1,1.8c0,0-0.3,0-0.3,0
			c0-0.2,0-0.5-0.1-0.6c-0.1-0.1,0-0.2-0.8-0.2h-0.7v0.7c0,1.3,0.1,1.9,0.2,2c0.1,0.1,0.3,0.2,0.9,0.2c0.6,0,1-0.2,1.2-0.4
			c0.1-0.2,0.3-0.4,0.3-0.7c0-0.1,0.2,0,0.2,0C53.2,35.3,53.1,36,53,36.1z"/>
		<path d="M63.1,35.9c-0.1,0.2-0.8,0.5-2.1,0.5c-2.1,0-3.7-1.5-3.7-3.4c0-1.8,1.4-3.6,3.7-3.6c1.2,0,1.8,0.4,2.1,0.3
			c0,0,0.1,0,0.1,0c0,0.4,0,0.9,0,1.5c0,0.1-0.3,0-0.3,0c0-0.3-0.2-0.6-0.4-0.8c-0.4-0.4-1-0.4-1.7-0.4c-1.9,0-2.5,1.1-2.5,2.6
			c0,1.7,1,3.1,2.7,3.1c0.8,0,1.3,0.1,1.6-0.4c0.2-0.3,0.3-0.6,0.4-0.9c0-0.1,0.2,0,0.2,0C63.3,35.1,63.2,35.8,63.1,35.9z"/>
		<path d="M69.8,36.3c0,0,0-0.2,0-0.3c0.4,0,0.6-0.1,0.7-0.2c0.1-0.1,0.2-0.3,0.2-2.2V33h-4.2v0.6c0,1.9,0.1,2.2,0.2,2.2
			c0.1,0.1,0.3,0.1,0.7,0.2c0,0,0,0.3,0,0.3c-0.5,0-2.3,0-2.8,0c0,0,0-0.2,0-0.3c0.4,0,0.6-0.1,0.7-0.2c0.1-0.1,0.2-0.3,0.2-2.2
			v-1.5c0-1.9-0.1-2.2-0.2-2.2c-0.1-0.1-0.3-0.1-0.7-0.2c-0.1,0,0-0.2,0-0.2c0.5,0,2.3,0,2.8,0c0,0,0,0.2,0,0.2
			c-0.4,0.1-0.6,0.1-0.7,0.2c-0.1,0.1-0.2,0.3-0.2,2.2v0.5h4.2v-0.5c0-1.9-0.1-2.2-0.2-2.2c-0.1-0.1-0.3-0.1-0.7-0.2
			c0,0,0-0.2,0-0.2c0.5,0,2.3,0,2.8,0c0,0,0,0.2,0,0.2c-0.4,0.1-0.6,0.1-0.7,0.2c-0.1,0.1-0.2,0.3-0.2,2.2v1.5
			c0,1.9,0.1,2.2,0.2,2.2c0.1,0.1,0.3,0.1,0.7,0.2c0.1,0,0.1,0.3,0,0.3C72.1,36.3,70.3,36.3,69.8,36.3z"/>
		<path d="M79.6,29.9c-0.1,0.1-0.2,0.3-0.2,2.2v1.8c0,1.3-0.7,2.5-2.4,2.5c-1.6,0-2.6-1.1-2.6-2.5v-1.8c0-1.9-0.1-2.2-0.2-2.2
			c-0.1-0.1-0.3-0.1-0.7-0.2c0,0,0-0.2,0-0.2c0.5,0,2.4,0,2.8,0c0,0,0,0.2,0,0.2c-0.4,0.1-0.6,0.1-0.7,0.2c-0.1,0.1-0.2,0.3-0.2,2.2
			v1.5c0,1.3,0.6,1.9,1.9,1.9c1.3,0,1.6-0.6,1.6-1.8v-1.6c0-1.9-0.1-2.1-0.2-2.2c-0.1-0.1-0.4-0.2-0.8-0.2c0,0,0-0.2,0-0.2
			c0.5,0,1.9,0,2.4,0c0,0,0.1,0.2,0,0.2C79.9,29.8,79.7,29.8,79.6,29.9z"/>
		<path d="M87.8,36.3c-0.6,0-1.2-0.1-1.6-0.4c-0.5-0.4-1.1-1-1.9-2.5c-0.5,0-0.7,0-1.1,0v0.2c0,1.9,0.1,2.2,0.2,2.2
			c0.1,0.1,0.4,0.1,0.9,0.2c0,0,0,0.3,0,0.3c-0.5,0-2.5,0-3,0c0,0,0-0.2,0-0.3c0.4,0,0.6-0.1,0.7-0.2c0.1-0.1,0.2-0.3,0.2-2.2v-1.5
			c0-1.9-0.1-2.2-0.2-2.2c-0.1-0.1-0.3-0.1-0.7-0.2c-0.1,0-0.1-0.2,0-0.2c0.5,0,1,0,1.4,0c0.4,0,0.8,0,1.3,0c1.6,0,2.4,0.9,2.4,1.7
			c0,0.8-0.6,1.5-1.3,2c1.4,2.1,2.1,2.8,2.9,2.8c0.1,0,0.2,0,0.3,0c0,0,0.1,0.2,0.1,0.2C88.2,36.2,88.1,36.3,87.8,36.3z M84.1,29.9
			c-0.4,0-0.6,0.1-0.6,0.1c-0.1,0.1-0.2,0.7-0.2,2.1c0,0.6,0,0.7,0.1,0.8c0.1,0.1,0.3,0.2,0.8,0.2c0.8,0,1.3-0.7,1.3-1.5
			C85.5,30.6,85,29.9,84.1,29.9z"/>
		<path d="M94.1,35.9c-0.1,0.2-0.8,0.5-2.1,0.5c-2.1,0-3.7-1.5-3.7-3.4c0-1.8,1.4-3.6,3.7-3.6c1.2,0,1.8,0.4,2.1,0.3
			c0,0,0.1,0,0.1,0c0,0.4,0,0.9,0,1.5c0,0.1-0.3,0-0.3,0c0-0.3-0.2-0.6-0.4-0.8c-0.4-0.4-1-0.6-1.7-0.6c-1.9,0-2.5,1.4-2.5,2.9
			c0,1.7,1,3.3,2.7,3.3c0.8,0,1.3-0.1,1.6-0.6c0.2-0.3,0.3-0.6,0.4-0.9c0-0.1,0.2,0,0.2,0C94.4,35.1,94.2,35.8,94.1,35.9z"/>
		<path d="M100.6,36.3c0,0,0-0.2,0-0.3c0.4,0,0.6-0.1,0.7-0.2c0.1-0.1,0.2-0.3,0.2-2.2V33h-4.2v0.6c0,1.9,0.1,2.2,0.2,2.2
			c0.1,0.1,0.3,0.1,0.7,0.2c0,0,0,0.3,0,0.3c-0.5,0-2.3,0-2.8,0c0,0,0-0.2,0-0.3c0.4,0,0.6-0.1,0.7-0.2c0.1-0.1,0.2-0.3,0.2-2.2
			v-1.5c0-1.9-0.1-2.2-0.2-2.2c-0.1-0.1-0.3-0.1-0.7-0.2c-0.1,0,0-0.2,0-0.2c0.5,0,2.3,0,2.8,0c0,0,0,0.2,0,0.2
			c-0.4,0.1-0.6,0.1-0.7,0.2c-0.1,0.1-0.2,0.3-0.2,2.2v0.5h4.2v-0.5c0-1.9-0.1-2.2-0.2-2.2c-0.1-0.1-0.3-0.1-0.7-0.2
			c0,0,0-0.2,0-0.2c0.5,0,2.3,0,2.8,0c0,0,0,0.2,0,0.2c-0.4,0.1-0.6,0.1-0.7,0.2c-0.1,0.1-0.2,0.3-0.2,2.2v1.5
			c0,1.9,0.1,2.2,0.2,2.2c0.1,0.1,0.3,0.1,0.7,0.2c0.1,0,0.1,0.3,0,0.3C102.9,36.3,101.1,36.3,100.6,36.3z"/>
		<path d="M110.4,36.4c-2,0-3.5-1.5-3.5-3.4c0-1.8,1.5-3.6,3.6-3.6c2,0,3.5,1.5,3.5,3.4C114,34.6,112.5,36.4,110.4,36.4z
			 M110.3,29.8c-1.8,0-2.4,1.6-2.4,2.9c0,1.7,1,3.3,2.6,3.3c1.8,0,2.4-1.6,2.4-2.9C112.9,31.4,112,29.8,110.3,29.8z"/>
		<path d="M119.2,30.9c0,0-0.3,0-0.3,0c0-0.3-0.1-0.5-0.2-0.6c-0.2-0.2-0.5-0.4-1.3-0.4c-0.4,0-0.8,0-0.9,0c0,0.1,0,0.5,0,1.2v1.5
			h0.7c1,0,1-0.1,1-0.5c0,0,0.3,0,0.3,0c0,0.3-0.1,1.3-0.1,1.6c0,0-0.3,0-0.3,0c0-0.2,0-0.4-0.1-0.5c-0.1-0.1-0.1-0.2-0.8-0.2h-0.7
			v0.6c0,1.9,0.1,2.2,0.2,2.2c0.1,0.1,0.4,0.1,0.9,0.2c0,0,0,0.3,0,0.3c-0.5,0-2.5,0-3,0c0,0,0-0.2,0-0.3c0.4,0,0.6-0.1,0.7-0.2
			c0.1-0.1,0.2-0.3,0.2-2.2v-1.5c0-1.9-0.1-2.2-0.2-2.3c-0.1-0.1-0.3-0.1-0.7-0.2c-0.1,0-0.1-0.2,0-0.2c0.8,0,2.1,0,2.8,0
			c0.9,0,1.5,0,1.8,0c0,0,0.1,0,0.1,0C119.3,29.9,119.3,30.3,119.2,30.9z"/>
	</g>
	<g>
		<path d="M15.9,43.9c-0.8,0.1-1.3,0.1-1.5,0.3c-0.3,0.1-0.5,0.7-0.4,4.3l0.1,5.4c0,3.5-0.8,5-4.2,6.6c-0.1,0-0.2-0.2-0.2-0.3
			c1.7-1.3,2.7-2.1,2.7-6.3v-5.4c0-3.6-0.2-4.1-0.4-4.3c-0.2-0.1-0.8-0.2-1.5-0.3c-0.1,0-0.1-0.4,0-0.4c0.9,0,4.6,0,5.6,0
			C16,43.5,16,43.8,15.9,43.9z"/>
		<path d="M26.6,56.1c-0.1,0.1-0.7,0.2-1.5,0.2c-1.2,0-1.8-0.1-3.4-0.1c-1.3,0-2.2,0-3.6,0c-0.1,0-0.1-0.4,0-0.4
			c0.8-0.1,1.2-0.1,1.5-0.3c0.2-0.1,0.4-0.7,0.4-4.3v-2.9c0-3.6-0.2-4.1-0.4-4.3c-0.2-0.1-0.7-0.2-1.5-0.3c-0.1,0-0.1-0.4,0-0.4
			c1.5,0,4.1,0,5.4,0c1.7,0,2.3,0,2.9-0.1c0.1,0,0.1,0,0.1,0.1c0,0.7-0.1,1.7-0.2,2.8c0,0.1-0.4,0.1-0.4-0.1c0-0.5-0.2-1-0.5-1.3
			c-0.4-0.4-0.9-0.6-2-0.6c-0.8,0-1.5,0-1.7,0c-0.1,0.2-0.1,0.9-0.1,2.2v2.8h1.6c1.9,0,1.9-0.5,2-1.2c0-0.1,0.4-0.1,0.4,0
			c0,0.5-0.1,3-0.1,3.6c0,0.1-0.4,0.1-0.4,0c0-0.4-0.1-1-0.3-1.2c-0.2-0.2-0.3-0.3-1.7-0.3h-1.6v1.3c0,2.6,0.1,3.7,0.3,3.9
			c0.2,0.2,0.8,0.3,2,0.3c1.2,0,1.7-0.3,2-0.7c0.2-0.3,0.5-0.8,0.7-1.6c0-0.1,0.4,0,0.4,0.1C26.8,54.6,26.6,56,26.6,56.1z"/>
		<path d="M33.1,56.6c-1.6,0-3-0.7-3.2-1c0,0-0.2-2.1-0.1-3.1c0-0.1,0.4-0.1,0.5,0c0,0.8,0.4,1.8,0.7,2.2c0.5,0.8,1.3,1,2.6,1
			c1.4,0,2.1-0.7,2.1-2.1c0-3.1-5.2-3.3-5.2-6.9c0-1.9,1.5-3.5,3.6-3.5c1.5,0,1.7,0.5,2.6,0.4c0.1,0,0.1,0,0.1,0.1
			c0,0.7,0,1.9,0,2.9c0,0.1-0.4,0.1-0.5,0c-0.1-0.8-0.2-1.5-0.6-1.9c-0.4-0.5-1-0.4-1.8-0.4c-1.1,0-1.9,0.6-1.9,1.8
			c0,2.7,5.3,3.3,5.3,6.8C37.2,55.2,35.1,56.6,33.1,56.6z"/>
		<path d="M51.7,44.2c-0.2,0.1-0.3,0.6-0.3,4.2v3.3c0,2.4-1.8,4.7-5.2,4.7c-3.1,0-5-2-5-4.6v-3.4c0-3.6-0.2-4.1-0.4-4.3
			c-0.3-0.1-0.6-0.2-1.4-0.3c-0.1,0-0.1-0.4,0-0.4c0.9,0,4.4,0,5.4,0c0.1,0,0.1,0.4,0,0.4c-0.8,0.1-1.2,0.1-1.4,0.3
			c-0.2,0.1-0.4,0.7-0.4,4.3v3c0,2.2,1.4,4,4,4c2.4,0,3.6-1.8,3.6-3.8v-3.2c0-3.6-0.2-4.1-0.4-4.2c-0.2-0.2-0.7-0.3-1.5-0.3
			c-0.1,0-0.1-0.4,0-0.4c0.9,0,3.5,0,4.4,0c0.1,0,0.1,0.4,0,0.4C52.3,43.9,51.9,44,51.7,44.2z"/>
		<path d="M58.3,56.6c-1.6,0-3-0.7-3.2-1c0,0-0.2-2.1-0.1-3.1c0-0.1,0.4-0.1,0.5,0c0,0.8,0.4,1.8,0.7,2.2c0.5,0.8,1.4,1,2.6,1
			c1.4,0,2.1-0.7,2.1-2.1c0-3.1-5.2-3.3-5.2-6.9c0-1.9,1.5-3.5,3.6-3.5c1.5,0,1.7,0.5,2.6,0.4c0.1,0,0.1,0,0.1,0.1
			c0,0.7,0,1.9,0,2.9c0,0.1-0.4,0.1-0.5,0c-0.1-0.8-0.2-1.5-0.6-1.9c-0.4-0.5-1-0.5-1.8-0.5c-1.1,0-1.9,0.6-1.9,1.8
			c0,2.7,5.3,3.3,5.3,6.8C62.4,55.2,60.3,56.6,58.3,56.6z"/>
		<path d="M81.8,55.6c-0.1,0.1-1.4,0.9-3.9,0.9c-4.2,0-6.9-3-6.9-6.5c0-3.4,2.4-6.9,6.9-6.9c2.2,0,3.4,0.8,4.1,0.6
			c0.1,0,0.1,0,0.1,0.1c0,0.7,0.1,2.1,0.1,3.2c0,0.1-0.4,0.1-0.5,0c-0.1-0.8-0.3-1.5-0.8-2c-0.6-0.6-1.8-0.8-3.2-0.8
			c-3.5,0-4.8,2.4-4.8,5.3c0,3.2,2,6,5.1,6c1.5,0,2.4-0.1,3.1-0.9c0.4-0.5,0.7-1.1,0.8-1.7c0-0.1,0.4,0,0.4,0.1
			C82.2,53.7,81.9,55.6,81.8,55.6z"/>
		<path d="M94,56.3c-0.1,0-0.1-0.4,0-0.4c0.8-0.1,1.1-0.2,1.4-0.3c0.2-0.1,0.4-0.7,0.4-4.3v-1.2h-7.3v1.2c0,3.6,0.2,4.2,0.4,4.3
			c0.2,0.1,0.6,0.2,1.3,0.3c0.1,0,0.1,0.4,0,0.4c-0.9,0-4.3,0-5.3,0c-0.1,0-0.1-0.4,0-0.4c0.8-0.1,1.1-0.2,1.4-0.3
			c0.2-0.1,0.4-0.7,0.4-4.3v-2.9c0-3.6-0.2-4.1-0.4-4.3c-0.2-0.1-0.6-0.2-1.4-0.3c-0.1,0-0.1-0.4,0-0.4c0.9,0,4.3,0,5.3,0
			c0.1,0,0.1,0.4,0,0.4c-0.8,0.1-1.1,0.1-1.3,0.3c-0.3,0.1-0.4,0.7-0.4,4.3v0.9h7.3v-0.9c0-3.6-0.2-4.1-0.4-4.3
			c-0.3-0.1-0.6-0.2-1.4-0.3c-0.1,0-0.1-0.4,0-0.4c0.9,0,4.3,0,5.3,0c0.1,0,0.1,0.4,0,0.4c-0.8,0.1-1.1,0.1-1.4,0.3
			c-0.2,0.1-0.4,0.7-0.4,4.3v2.9c0,3.6,0.2,4.2,0.4,4.3c0.3,0.1,0.6,0.2,1.4,0.3c0.1,0,0.1,0.4,0,0.4C98.4,56.3,95,56.3,94,56.3z"/>
		<path d="M114.3,56.3c-1.7,0-2.7-0.2-3.4-0.7c-1-0.7-2.1-2-3.7-4.8c-1,0-1.4,0-2.1,0v0.5c0,3.6,0.2,4.1,0.4,4.3
			c0.3,0.1,0.9,0.2,1.7,0.3c0.1,0,0.1,0.4,0,0.4c-0.9,0-4.7,0-5.6,0c-0.1,0-0.1-0.4,0-0.4c0.8-0.1,1.1-0.1,1.3-0.3
			c0.3-0.1,0.4-0.7,0.4-4.3v-2.9c0-3.6-0.2-4.1-0.4-4.3c-0.2-0.1-0.6-0.2-1.3-0.3c-0.1,0-0.1-0.4,0-0.4c0.9,0,1.9,0,2.6,0
			c0.7,0,1.5,0,2.4,0c3,0,4.4,1.6,4.4,3.2c0,1.6-1,2.9-2.4,3.7c2.8,4.2,4.4,5.6,5.7,5.6c0.8,0,1.2-0.1,1.5-0.3
			c0.2-0.1,0.4-0.7,0.4-4.3v-2.9c0-3.6-0.2-4.1-0.4-4.3c-0.2-0.1-0.8-0.2-1.5-0.3c-0.1,0-0.1-0.4,0-0.4c0.9,0,4.6,0,5.6,0
			c0.1,0,0.1,0.4,0,0.4c-0.8,0.1-1.3,0.1-1.5,0.3c-0.3,0.1-0.4,0.7-0.4,4.3v2.9c0,3.6,0.2,4.1,0.4,4.3c0.2,0.1,0.7,0.2,1.5,0.3
			c0.1,0,0.1,0.4,0,0.4C119,56.3,115.2,56.3,114.3,56.3z M106.6,44.1c-0.7,0-1.3,0.1-1.3,0.2c-0.1,0.1-0.2,1.2-0.2,4.1
			c0,1.2,0,1.4,0.1,1.5c0.1,0.1,0.7,0.2,1.6,0.2c1.6,0,2.4-1.2,2.4-2.8C109.2,45.5,108.5,44.1,106.6,44.1z"/>
		<path d="M125.6,56.6c-1.6,0-3-0.7-3.2-1c0,0-0.2-2.1-0.1-3.1c0-0.1,0.4-0.1,0.5,0c0,0.8,0.4,1.8,0.7,2.2c0.5,0.8,1.3,1,2.6,1
			c1.4,0,2.1-0.7,2.1-2.1c0-3.1-5.2-3.3-5.2-6.9c0-1.9,1.5-3.5,3.6-3.5c1.5,0,1.9,0.5,2.8,0.4c0.1,0,0.1,0,0.1,0.1
			c0,0.7,0,1.9,0,2.9c0,0.1-0.4,0.1-0.5,0c-0.1-0.8-0.2-1.5-0.6-1.9c-0.4-0.5-1.2-0.4-2-0.4c-1.1,0-1.9,0.5-1.9,1.8
			c0,2.7,5.3,3.3,5.3,6.8C129.7,55.2,127.6,56.6,125.6,56.6z"/>
		<path d="M143.1,46.6c0,0.1-0.4,0.1-0.4,0c0-0.5-0.1-1.4-0.4-1.8c-0.4-0.4-1.5-0.8-3.2-0.8c-0.5,0-0.7,0-0.9,0
			c-0.1,0.2-0.1,1.2-0.1,2.4v4.8c0,3.6,0.2,4.1,0.4,4.3c0.2,0.1,0.7,0.2,1.5,0.3c0.1,0,0.1,0.4,0,0.4c-1,0-4.6,0-5.6,0
			c-0.1,0-0.1-0.4,0-0.4c0.8-0.1,1.3-0.1,1.5-0.3c0.3-0.1,0.4-0.7,0.4-4.3v-4.8c0-1.3,0-2.2-0.1-2.4c-0.2,0-0.5,0-1,0
			c-1.9,0-2.5,0.2-3,0.8c-0.3,0.4-0.5,1.1-0.7,1.8c0,0.1-0.4,0.1-0.4,0c0.1-1,0.2-2.5,0.3-3.2c0-0.1,0.1-0.1,0.2-0.1
			c0.7,0.1,2,0.2,5.4,0.2c4.7,0,5.4-0.1,5.8-0.3c0.1,0,0.2,0,0.2,0.1C143.3,44.1,143.2,45.6,143.1,46.6z"/>
	</g>
	<g>
		<path d="M21.1,70.4c-2,0-3.5-1.5-3.5-3.4c0-1.8,1.5-3.6,3.6-3.6c2,0,3.5,1.5,3.5,3.4C24.7,68.6,23.3,70.4,21.1,70.4z M21.1,63.8
			c-1.8,0-2.4,1.6-2.4,2.8c0,1.7,1,3.3,2.6,3.3c1.8,0,2.4-1.6,2.4-2.8C23.7,65.4,22.7,63.8,21.1,63.8z"/>
		<path d="M30.3,64.9c0,0-0.3,0-0.3,0c0-0.3-0.1-0.5-0.2-0.6c-0.2-0.2-0.5-0.4-1.3-0.4c-0.4,0-0.8,0-0.9,0c0,0.1,0,0.5,0,1.2v1.5
			h0.7c1,0,1.1-0.1,1.2-0.5c0,0,0.3,0,0.3,0c0,0.3-0.1,1.3-0.1,1.6c0,0-0.3,0-0.3,0c0-0.2,0-0.4-0.1-0.5c-0.1-0.1-0.2-0.2-1-0.2
			h-0.7v0.6c0,1.9,0.1,2.1,0.2,2.2c0.1,0.1,0.4,0.1,0.9,0.2c0,0,0,0.3,0,0.3c-0.5,0-2.5,0-3,0c0,0,0-0.2,0-0.3
			c0.4,0,0.6-0.1,0.7-0.2c0.1-0.1,0.2-0.3,0.2-2.2v-1.5c0-1.9-0.1-2.2-0.2-2.3c-0.1-0.1-0.3-0.1-0.7-0.2c-0.1,0-0.1-0.2,0-0.2
			c0.8,0,2.1,0,2.8,0c0.9,0,1.5,0,1.8,0c0,0,0.1,0,0.1,0C30.4,63.9,30.4,64.4,30.3,64.9z"/>
		<path d="M39.2,70.1c-0.1,0.1-0.2,0.2-0.4,0.2c-0.6,0-1.4,0-2.2,0c-0.7,0-1.2,0-1.9,0c0,0,0-0.2,0-0.3c0.4,0,0.6-0.1,0.7-0.2
			c0.1-0.1,0.2-0.3,0.2-2.2v-1.5c0-1.9-0.1-2.1-0.2-2.2c-0.1-0.1-0.3-0.1-0.7-0.2c0,0,0-0.2,0-0.2c0.5,0,2.3,0,2.8,0
			c0,0,0,0.2,0,0.2c-0.4,0.1-0.6,0.1-0.7,0.2c-0.1,0.1-0.2,0.3-0.2,2.2v1.5c0,1.3,0.1,1.8,0.2,2c0.1,0.1,0.3,0.2,0.9,0.2
			c0.6,0,1-0.2,1.2-0.4c0.2-0.3,0.4-0.7,0.5-1c0-0.1,0.3,0,0.3,0C39.4,68.9,39.2,70,39.2,70.1z"/>
		<path d="M44.1,70.3c0,0,0-0.2,0-0.3c0.3,0,0.5-0.1,0.5-0.3c0-0.2-0.1-0.5-0.7-2c0,0-2,0-2.1,0c-0.5,1.3-0.6,1.7-0.6,1.9
			c0,0.2,0.1,0.3,0.6,0.3c0.1,0,0,0.3,0,0.3c-0.3,0-1.7,0-2.2,0c0,0,0-0.2,0-0.3c0.3,0,0.5-0.1,0.7-0.2c0.2-0.2,0.4-0.5,1-2.2
			l0.6-1.5c0.3-0.9,0.7-1.8,0.9-2.6c0-0.1,0.4-0.1,0.5,0c0.3,0.9,0.6,1.7,0.9,2.6l0.6,1.5c0.8,2,0.9,2.1,1.1,2.2
			c0.2,0.1,0.3,0.2,0.6,0.2c0,0,0,0.3,0,0.3C46,70.3,44.6,70.3,44.1,70.3z M42.9,64.9L42,67.3h1.7L42.9,64.9z"/>
		<path d="M52.2,65c0,0-0.2,0-0.2,0c0-0.3-0.1-0.5-0.2-0.7c-0.2-0.2-0.5-0.3-1.6-0.3c-0.2,0-0.4,0-0.4,0c0,0.1-0.1,0.5-0.1,1.2v2.5
			c0,1.9,0.1,2.1,0.2,2.2c0.1,0.1,0.4,0.1,0.8,0.2c0,0,0,0.3,0,0.3c-0.5,0-2.5,0-3,0c0,0,0-0.2,0-0.3c0.4,0,0.7-0.1,0.8-0.2
			c0.1-0.1,0.2-0.3,0.2-2.2v-2.5c0-0.7,0-1.1,0-1.2c-0.1,0-0.3,0-0.5,0c-1.1,0-1.4,0.1-1.6,0.3c-0.2,0.2-0.3,0.5-0.3,0.7
			c0,0-0.2,0-0.2,0c0.1-0.5,0.1-1.1,0.1-1.5c0,0,0,0,0.1,0c0.4,0.1,1.2,0.1,3,0.1c2.5,0,2.8-0.1,3-0.1c0,0,0.1,0,0.1,0
			C52.3,63.9,52.2,64.5,52.2,65z"/>
		<path d="M59.1,65c0,0-0.2,0-0.2,0c0-0.3-0.1-0.5-0.2-0.7c-0.2-0.2-0.5-0.3-1.6-0.3c-0.2,0-0.4,0-0.4,0c0,0.1-0.1,0.5-0.1,1.2v2.5
			c0,1.9,0.1,2.1,0.2,2.2c0.1,0.1,0.4,0.1,0.8,0.2c0,0,0,0.3,0,0.3c-0.5,0-2.5,0-3,0c0,0,0-0.2,0-0.3c0.4,0,0.7-0.1,0.8-0.2
			c0.1-0.1,0.2-0.3,0.2-2.2v-2.5c0-0.7,0-1.1,0-1.2c-0.1,0-0.3,0-0.5,0c-1.1,0-1.4,0.1-1.6,0.3c-0.2,0.2-0.3,0.5-0.3,0.7
			c0,0-0.2,0-0.2,0c0.1-0.5,0.1-1.1,0.1-1.5c0,0,0,0,0.1,0c0.4,0.1,1.2,0.1,3,0.1c2.5,0,2.8-0.1,3-0.1c0,0,0.1,0,0.1,0
			C59.2,63.9,59.2,64.5,59.1,65z"/>
		<path d="M64.2,70.1c-0.1,0.1-0.1,0.2-0.4,0.2c-0.6,0-1.4,0-2.2,0c-0.7,0-1.1,0-1.8,0c0,0,0-0.2,0-0.3c0.4,0,0.6-0.1,0.7-0.2
			c0.1-0.1,0.2-0.3,0.2-2.2v-1.5c0-1.9-0.1-2.1-0.2-2.2c-0.1-0.1-0.3-0.1-0.7-0.2c0,0,0-0.2,0-0.2c0.8,0,2.1,0,2.7,0
			c0.9,0,1.3,0,1.6,0c0.1,0,0.1,0,0.1,0c0,0.3-0.1,0.9-0.1,1.4c0,0.1-0.3,0-0.3,0c0-0.3-0.1-0.5-0.2-0.7c-0.2-0.2-0.5-0.3-1.2-0.3
			c-0.4,0-0.7,0-0.8,0c0,0.1,0,0.5,0,1.1v1.5h0.8c1,0,0.9-0.2,0.9-0.6c0,0,0.3,0,0.3,0c0,0.3-0.1,1.5-0.1,1.8c0,0-0.3,0-0.3,0
			c0-0.2,0-0.5-0.1-0.6c-0.1-0.1,0-0.2-0.7-0.2h-0.7v0.7c0,1.3,0.1,1.8,0.2,2c0.1,0.1,0.3,0.2,0.9,0.2c0.6,0,1-0.2,1.2-0.4
			c0.1-0.2,0.3-0.4,0.3-0.7c0-0.1,0.2,0,0.2,0C64.4,69.4,64.3,70,64.2,70.1z"/>
		<path d="M72.6,70.3c-0.6,0-1.2-0.1-1.6-0.4c-0.5-0.3-1.1-1-1.9-2.4c-0.5,0-0.7,0-1.1,0v0.2c0,1.9,0.1,2.1,0.2,2.2
			c0.1,0.1,0.4,0.1,0.9,0.2c0,0,0,0.3,0,0.3c-0.5,0-2.5,0-3,0c0,0,0-0.2,0-0.3c0.4,0,0.6-0.1,0.7-0.2c0.1-0.1,0.2-0.3,0.2-2.2v-1.5
			c0-1.9-0.1-2.1-0.2-2.2c-0.1-0.1-0.3-0.1-0.7-0.2c-0.1,0-0.1-0.2,0-0.2c0.5,0,1,0,1.4,0c0.4,0,0.8,0,1.3,0c1.6,0,2.4,0.9,2.4,1.7
			c0,0.8-0.6,1.5-1.3,2c1.4,2.1,2.1,2.8,2.9,2.8c0.1,0,0.2,0,0.3,0c0,0,0.1,0.2,0.1,0.2C73,70.2,72.8,70.3,72.6,70.3z M68.8,63.9
			c-0.4,0-0.6,0.1-0.6,0.1c-0.1,0.1-0.2,0.7-0.2,2.1c0,0.6,0,0.7,0.1,0.8c0.1,0.1,0.3,0.2,0.8,0.2c0.8,0,1.3-0.7,1.3-1.5
			C70.2,64.6,69.8,63.9,68.8,63.9z"/>
		<path d="M76.4,67.1c0,0.1-0.1,0.1-0.2,0.1l-1.3,0c-1.2,0-1.4,0.2-1.6,0.4c0,0-0.2,0-0.2-0.1c0-0.2,0.1-0.7,0.1-0.9l1.5,0
			c1.2,0,1.4-0.2,1.5-0.4c0,0,0.2,0,0.2,0C76.4,66.4,76.4,67,76.4,67.1z"/>
		<path d="M83.5,69.3c-0.7,0.7-1.5,1-2.8,1c-0.5,0-1.2,0-1.6,0c-0.4,0-0.9,0-1.4,0c0,0,0-0.2,0-0.3c0.4,0,0.6-0.1,0.7-0.2
			c0.1-0.1,0.2-0.3,0.2-2.2v-1.5c0-1.9-0.1-2.1-0.2-2.2c-0.1-0.1-0.3-0.1-0.7-0.2c0,0,0-0.2,0-0.2c0.4,0,1,0,1.4,0
			c0.4,0,1.3,0,1.8,0c2.1,0,3.7,1.4,3.7,3.3C84.5,67.7,84.1,68.6,83.5,69.3z M80.6,63.9c-0.6,0-0.8,0.1-0.9,0.2
			c-0.1,0.1-0.2,0.6-0.2,2v1.6c0,1.3,0.1,1.8,0.2,2c0.2,0.2,0.3,0.3,0.9,0.3c2,0,2.9-0.9,2.9-2.9C83.5,65.4,82.5,63.9,80.6,63.9z"/>
		<path d="M89.1,70.3c0,0,0-0.2,0-0.3c0.3,0,0.5-0.1,0.5-0.3c0-0.2-0.1-0.5-0.7-2c0,0-2,0-2.1,0c-0.5,1.3-0.6,1.7-0.6,1.9
			c0,0.2,0.2,0.3,0.6,0.3c0.1,0,0,0.3,0,0.3c-0.3,0-1.7,0-2.2,0c0,0,0-0.2,0-0.3c0.3,0,0.5-0.1,0.7-0.2c0.2-0.2,0.4-0.5,1-2.2
			l0.6-1.5c0.3-0.9,0.7-1.8,0.9-2.6c0-0.1,0.4-0.1,0.5,0c0.3,0.9,0.6,1.7,0.9,2.6l0.6,1.5c0.8,2,0.9,2.1,1.1,2.2
			c0.2,0.1,0.3,0.2,0.6,0.2c0,0,0,0.3,0,0.3C91,70.3,89.6,70.3,89.1,70.3z M87.9,64.9L87,67.3h1.7L87.9,64.9z"/>
		<path d="M96.7,63.9c-0.3,0.1-0.5,0.4-1,1.3l-0.6,0.9c-0.2,0.4-0.5,0.8-0.7,1.2v0.4c0,1.9,0.1,2.1,0.2,2.2c0.1,0.1,0.4,0.1,0.8,0.2
			c0,0,0,0.3,0,0.3c-0.5,0-2.5,0-3,0c0,0,0-0.2,0-0.3c0.4,0,0.7-0.1,0.8-0.2c0.1-0.1,0.2-0.3,0.2-2.2v-0.3c-0.2-0.4-0.4-0.8-0.7-1.2
			l-0.6-0.9c-0.7-1-0.8-1.2-1-1.3c-0.2-0.1-0.4-0.1-0.7-0.1c0,0,0-0.3,0-0.3c0.5,0,2,0,2.5,0c0,0,0.1,0.3,0,0.3
			c-0.2,0-0.3,0-0.4,0.1c-0.1,0,0,0.2,0.6,1.2l1,1.7l1-1.7c0.5-0.9,0.6-1.1,0.5-1.2c-0.1-0.1-0.2-0.1-0.5-0.1c0,0,0-0.3,0-0.3
			c0.3,0,1.7,0,2.2,0c0,0,0,0.3,0,0.3C97.2,63.8,96.9,63.8,96.7,63.9z"/>
		<path d="M102.6,70.4c-1,0-1.6-0.5-1.7-0.6c-0.1-0.4-0.1-1,0-1.5c0,0,0.2-0.1,0.2,0c0,0.4,0.2,0.8,0.3,1c0.3,0.4,0.7,0.7,1.3,0.7
			c0.7,0,1.1-0.5,1.1-1.2c0-1.5-2.7-1.8-2.7-3.5c0-1.1,1-1.8,1.9-1.8c0.8,0,1,0.3,1.4,0.2c0,0,0.1,0,0.1,0c0,0.4,0,0.9,0,1.5
			c0,0-0.2,0-0.3,0c0-0.3-0.2-0.7-0.3-0.9c-0.2-0.2-0.6-0.4-0.9-0.4c-0.6,0-1,0.4-1,1.1c0,1.3,2.8,1.8,2.8,3.5
			C104.8,69.7,103.6,70.4,102.6,70.4z"/>
		<path d="M109.6,70.3c0,0,0-0.2,0-0.3c0.3,0,0.5-0.1,0.5-0.3c0-0.2-0.1-0.5-0.7-2c0,0-2,0-2.1,0c-0.5,1.3-0.6,1.7-0.6,1.9
			c0,0.2,0.2,0.3,0.6,0.3c0.1,0,0,0.3,0,0.3c-0.3,0-1.7,0-2.2,0c0,0,0-0.2,0-0.3c0.3,0,0.5-0.1,0.7-0.2c0.2-0.2,0.4-0.5,1-2.2
			l0.6-1.5c0.3-0.9,0.7-1.8,0.9-2.6c0-0.1,0.4-0.1,0.5,0c0.3,0.9,0.6,1.7,0.9,2.6l0.6,1.5c0.8,2,0.9,2.1,1.1,2.2
			c0.2,0.1,0.3,0.2,0.6,0.2c0,0,0,0.3,0,0.3C111.5,70.3,110,70.3,109.6,70.3z M108.3,64.9l-0.8,2.4h1.7L108.3,64.9z"/>
		<path d="M112.5,70.3c0,0,0-0.2,0-0.3c0.4,0,0.7-0.1,0.8-0.2c0.1-0.1,0.2-0.3,0.2-2.2v-1.5c0-1.9-0.1-2.1-0.2-2.2
			c-0.1-0.1-0.4-0.1-0.8-0.2c0,0,0-0.2,0-0.2c0.5,0,2.5,0,3,0c0,0,0,0.2,0,0.2c-0.4,0.1-0.7,0.1-0.8,0.2c-0.1,0.1-0.2,0.3-0.2,2.2
			v1.5c0,1.9,0.1,2.1,0.2,2.2c0.1,0.1,0.4,0.1,0.8,0.2c0,0,0,0.3,0,0.3C115,70.3,113,70.3,112.5,70.3z"/>
		<path d="M122.7,64c-0.1,0.1-0.2,0.3-0.2,2.2v1.5c0,0.9,0,1.8,0.1,2.6c0,0.1-0.3,0.1-0.4,0l-5-5.2l0,2.6c0,1.7,0.2,2.1,0.3,2.2
			c0.1,0.1,0.4,0.2,0.7,0.2c0.1,0,0,0.3,0,0.3c-0.5,0-2,0-2.5,0c0,0,0-0.2,0-0.3c0.4,0,0.7-0.1,0.8-0.2c0.1-0.1,0.2-0.3,0.2-2.2
			l0-1.5c0-0.9,0-1.8-0.1-2.6c0-0.1,0.4-0.1,0.4,0l5,5.2l0-2.6c0-1.9-0.2-2.1-0.3-2.2c-0.1-0.1-0.4-0.2-0.8-0.2c-0.1,0,0-0.2,0-0.2
			c0.5,0,2,0,2.5,0c0,0,0.1,0.2,0,0.2C123,63.8,122.8,63.9,122.7,64z"/>
		<path d="M130,65c0,0-0.2,0-0.2,0c0-0.3-0.1-0.5-0.2-0.7c-0.2-0.2-0.5-0.3-1.6-0.3c-0.2,0-0.4,0-0.4,0c0,0.1-0.1,0.5-0.1,1.2v2.5
			c0,1.9,0.1,2.1,0.2,2.2c0.1,0.1,0.4,0.1,0.8,0.2c0,0,0,0.3,0,0.3c-0.5,0-2.5,0-3,0c0,0,0-0.2,0-0.3c0.4,0,0.7-0.1,0.8-0.2
			c0.1-0.1,0.2-0.3,0.2-2.2v-2.5c0-0.7,0-1.1,0-1.2c-0.1,0-0.3,0-0.5,0c-1.1,0-1.4,0.1-1.6,0.3c-0.2,0.2-0.3,0.5-0.3,0.7
			c0,0-0.2,0-0.2,0c0.1-0.5,0.1-1.1,0.1-1.5c0,0,0,0,0.1,0c0.4,0.1,1.2,0.1,3,0.1c2.5,0,2.8-0.1,3-0.1c0,0,0.1,0,0.1,0
			C130.1,63.9,130.1,64.5,130,65z"/>
		<path d="M132.8,70.4c-1,0-1.6-0.5-1.7-0.6c-0.1-0.4-0.1-1,0-1.5c0,0,0.2-0.1,0.2,0c0,0.4,0.2,0.8,0.3,1c0.3,0.4,0.7,0.7,1.3,0.7
			c0.7,0,1.1-0.5,1.1-1.2c0-1.5-2.7-1.8-2.7-3.5c0-1.1,1-1.8,1.9-1.8c0.8,0,1,0.3,1.4,0.2c0,0,0.1,0,0.1,0c0,0.4,0,0.9,0,1.5
			c0,0-0.2,0-0.3,0c0-0.3-0.2-0.7-0.3-0.9c-0.2-0.2-0.6-0.4-0.9-0.4c-0.6,0-1,0.4-1,1.1c0,1.3,2.8,1.8,2.8,3.5
			C135,69.7,133.8,70.4,132.8,70.4z"/>
	</g>
	<rect x="163" y="23" opacity="0.5" width="1" height="53"/>
	<g>
		<g>
			<path d="M187.7,56c0.8,0.2,1.5,0.2,2.3,0.2c2.2,0,5.5-0.1,6-0.5c0.3-0.2,0.4-1.2,0.6-1.7l0.3-1.4h0.9c0,0.2-0.1,0.5-0.1,0.7
				c-0.1,1.3-0.3,2.8-0.5,4c-1,0-2.8,0.1-4.5,0.1h-0.8c-2.4,0-4.2-0.1-5.9-0.1c-0.9,0-1.6,0.1-2.3,0.1v-0.6l0.8-0.4
				c0.5-0.2,0.7-0.9,0.7-1.6V41.8c0-2,0-2.4-1.4-2.4l-1.3-0.1v-0.8c1.4,0.1,2.7,0.1,4,0.1c1.2,0,2.5,0,3.9-0.1v0.8l-1.3,0.1
				c-1.4,0.1-1.4,0.5-1.4,2.4V56z"/>
			<path d="M200.8,41.6c0-1.7,0-2.1-1.4-2.2l-1.1-0.1v-0.8c1.8,0,3.5,0.1,5.3,0.1c1.8,0,3.5-0.1,4.7-0.1h0.4c5.4,0,9.3,3.1,9.3,8.3
				c0,4.4-2.5,8.3-5.8,9.6c-1.5,0.6-3.1,0.9-5.3,0.9h-0.5c-1,0-2-0.1-3.1-0.1H203c-1.2,0-2.4,0.1-3.7,0.1v-0.6l0.8-0.4
				c0.5-0.2,0.7-0.9,0.7-1.6V41.6z M203.4,55.9c0.8,0.2,2.2,0.2,3.1,0.2c5.8,0,8.7-3.4,8.7-8.6c0-6.7-3.8-7.9-8.7-7.9
				c-0.9,0-2.3,0-3.1,0.2V55.9z"/>
			<path d="M229.9,43l-0.2-1.5c-0.1-1.1-1.6-2.3-4.1-2.3c-1.9,0-4,1.3-4,4c0,1.8,1.1,3,4.5,3.4c3.8,0.4,6.2,1.4,6.2,4.4
				c0,4.6-4.1,6.8-8.2,6.8c-1.9,0-3.7-0.6-4.6-1c0.2-1,0.2-2.1,0.2-3.1v-1h0.9l0.2,1.8c0.1,1.1,2.3,2.2,4.4,2.2
				c2.4,0,4.8-1.5,4.8-4.2c0-2.6-2-3.3-4.8-3.6c-4.2-0.5-5.9-1.8-5.9-4.6c0-4.2,3.7-6.1,6.9-6.1c1.9,0,3.4,0.5,4.5,1
				c0.1,0.1,0.3,0.1,0.4,0.2c-0.3,1.4-0.4,2.5-0.4,3.8H229.9z"/>
			<path d="M245.5,54c0,2,0,2.4,1.4,2.4l1.3,0.1v0.8c-1.4-0.1-2.7-0.1-3.9-0.1c-1.3,0-2.6,0-4,0.1v-0.8l1.3-0.1
				c1.4-0.1,1.4-0.5,1.4-2.4V41.8c0-1.9-0.1-2.4-1.4-2.4l-1.2-0.1v-0.8c1.8,0,3.3,0.1,4.9,0.1c1.6,0,3.1-0.1,4.6-0.1h0.2
				c2.6,0,5.4,1.2,5.4,4.1c0,3.4-2.9,5.8-6.5,5.8c-0.5,0-1.1-0.1-1.6-0.2l-0.3-1c0.6,0.2,1.2,0.3,1.8,0.3c2.2,0,3.9-1.7,3.9-4
				c0-2.8-1.7-4-4.4-4c-1.2,0-2,0.1-2.8,0.3V54z"/>
			<path d="M258.4,40.5c0-0.6-0.1-1.1-0.7-1.1h-1.5v-0.8c1.4-0.2,2.9-0.5,4.2-1l0.2,0.2v9.1h0.1l2-1.7c0.6-0.5,1.1-0.7,2.2-0.7
				c3.2,0,4.5,1.8,4.5,4.7V55c0,1,0.1,1.4,1,1.5l1.1,0.1v0.8c-0.7,0-1.5-0.1-2.2-0.1c-0.8,0-1.5,0.1-2.2,0.1v-7.7
				c0-2.2-1.3-3.4-3.1-3.4c-1.7,0-3.3,1.4-3.3,2.5v6c0,1.2,0,1.6,1,1.7l1.2,0.1v0.8c-0.9,0-2-0.1-3.4-0.1c-1.3,0-2.4,0.1-3.4,0.1
				v-0.8l1.2-0.1c1-0.1,1-0.5,1-1.7V40.5z"/>
			<path d="M276.9,54.7c0,1.2,0,1.6,1,1.7l1.2,0.1v0.8c-1,0-2.1-0.1-3.4-0.1c-1.3,0-2.4,0.1-3.4,0.1v-0.8l1.2-0.1c1-0.1,1-0.5,1-1.7
				v-6.4c0-1.8-0.1-2-1.2-2h-1v-0.8c1.6-0.2,3.2-0.7,4.2-1.1l0.2,0.1V54.7z M277.1,40.2c0,0.8-0.7,1.5-1.5,1.5
				c-0.8,0-1.5-0.7-1.5-1.5c0-0.8,0.7-1.5,1.5-1.5C276.4,38.6,277.1,39.4,277.1,40.2z"/>
			<path d="M282.2,40.5c0-0.6-0.1-1.1-0.7-1.1H280v-0.8c1.4-0.2,2.9-0.5,4.2-1l0.2,0.2v16.9c0,1.2,0,1.6,1,1.7l1.2,0.1v0.8
				c-1,0-2.1-0.1-3.4-0.1c-1.3,0-2.4,0.1-3.4,0.1v-0.8l1.2-0.1c1-0.1,1-0.5,1-1.7V40.5z"/>
			<path d="M295.7,49.4L295.7,49.4c0-2.1-1.1-3.5-3.4-3.5c-1.7,0-1.8,0.2-2.4,1.5l-0.4,0.8l-0.7-0.2v-1.8l1.4-0.9
				c1.2-0.7,2.3-0.9,3.1-0.9c3.4,0,4.4,1.5,4.4,5.4v5.4c0,0.6,0.1,1.1,0.8,1.1l1.1,0.1v0.8c-0.7,0-1.4-0.1-2-0.1
				c-0.7,0-1.4,0.1-2.1,0.1l0.1-2.3l-3.4,2.3c-0.2,0.2-0.8,0.2-1.2,0.2c-1.8,0-3.3-1.1-3.3-3.3c0-3.1,2.7-3.9,5.2-4.4L295.7,49.4z
				 M295.7,50.3c-0.4,0.1-0.8,0.1-1.2,0.2c-2,0.3-4.4,1-4.4,3.3c0,1.4,1,2.2,2.1,2.2c1.1,0,2.9-1.3,3.5-2.1V50.3z"/>
			<path d="M305.2,54.7c0,1.2,0,1.6,1,1.7l1.2,0.1v0.8c-0.9,0-2-0.1-3.4-0.1c-1.3,0-2.4,0.1-3.4,0.1v-0.8l1.2-0.1c1-0.1,1-0.5,1-1.7
				v-6.4c0-1.8-0.1-2-1.2-2h-1v-0.8c1.6-0.2,3.2-0.7,4.2-1.1l0.2,0.1v2.3h0.1l2-1.7c0.6-0.5,1.1-0.7,2.2-0.7c3.2,0,4.5,1.8,4.5,4.7
				v5.5c0,1.2,0,1.6,1,1.7l1.1,0.1v0.8c-0.7,0-1.5-0.1-2.2-0.1c-0.8,0-1.5,0.1-2.2,0.1v-7.7c0-2.2-1.3-3.4-3.1-3.4
				c-1.7,0-3.3,1.4-3.3,2.5V54.7z"/>
			<path d="M316.6,47v-0.6l2.1-0.9v-1.9c0-0.7,0-1.4-0.1-2.1c1-0.3,1.9-0.7,2.4-1l0.3,0.3c-0.2,1.2-0.3,2.7-0.3,3.8v0.9h3.7
				l-0.2,1.5h-3.5V54c0,1.2,0.4,1.9,1.5,1.9c0.7,0,1.2-0.3,1.6-0.5l0.4,0.5l-1.3,1.4c-0.2,0.3-1.2,0.3-1.8,0.3
				c-1.4,0-2.7-0.7-2.7-2.9V47H316.6z"/>
			<path d="M327.2,40.5c0-0.6-0.1-1.1-0.7-1.1H325v-0.8c1.4-0.2,2.9-0.5,4.2-1l0.2,0.2v9.1h0.1l2-1.7c0.6-0.5,1.1-0.7,2.2-0.7
				c3.2,0,4.5,1.8,4.5,4.7V55c0,1,0.1,1.4,1,1.5l1.1,0.1v0.8c-0.7,0-1.5-0.1-2.2-0.1c-0.8,0-1.5,0.1-2.2,0.1v-7.7
				c0-2.2-1.3-3.4-3.1-3.4c-1.7,0-3.3,1.4-3.3,2.5v6c0,1.2,0,1.6,1,1.7l1.2,0.1v0.8c-0.9,0-2-0.1-3.4-0.1c-1.3,0-2.4,0.1-3.4,0.1
				v-0.8l1.2-0.1c1-0.1,1-0.5,1-1.7V40.5z"/>
			<path d="M343.3,48.4c0-1.8-0.1-2-1.2-2h-1v-0.8c1.6-0.2,3.2-0.7,4.2-1.1l0.2,0.1v2.7h0.1l1.5-1.7c0.6-0.8,1.6-1.1,2.3-1.1
				c0.5,0,1,0.1,1.2,0.3l-0.2,3.2h-0.6c-0.3-0.6-0.9-1.2-1.8-1.2c-1.2,0-2.4,1.2-2.4,3v5.4c0,0.8,0.1,1.2,1.3,1.2l1.4,0.1v0.8
				c-1.4,0-2.5-0.1-3.8-0.1c-1.3,0-2.4,0.1-3.4,0.1v-0.8l1.2-0.1c1-0.1,1-0.5,1-1.7V48.4z"/>
			<path d="M357.3,57.8c-3.3,0-5.8-2.7-5.8-6.3c0-4.1,2.5-6.9,6.9-6.9c3.5,0,6.1,2.7,6.1,6.2c0,4.1-2.9,7.1-7.1,7.1H357.3z
				 M354,50.3c0,2.8,1,6.6,4.5,6.6c2.5,0,3.5-2.5,3.5-5c0-3.5-1.7-6.5-4.2-6.5C354.9,45.4,354,47.8,354,50.3z"/>
			<path d="M367.3,48.4c0-1.8-0.1-2-1.2-2h-1v-0.8c1.6-0.2,3.2-0.7,4.2-1.1l0.2,0.1v2.5h0.1l2.2-2c0.5-0.4,1.4-0.7,2.5-0.7
				c2.9,0,5.5,2.2,5.5,5.5c0,1.8-1.5,4.5-2.4,5.1l-3.1,2c-0.5,0.3-1.2,0.4-1.9,0.4c-0.8,0-2.1-0.1-2.9-0.7v5.9c0,1.2,0,1.6,1,1.7
				l1.2,0.1v0.8c-1,0-2.1-0.1-3.4-0.1s-2.4,0.1-3.4,0.1v-0.8l1.2-0.1c1-0.1,1-0.5,1-1.7V48.4z M369.6,54.6c1,1.2,2.3,1.6,3.8,1.6
				c2.2,0,4.1-2.2,4.1-5.3c0-2.5-1.4-4.6-4.2-4.6c-2.7,0-3.7,2-3.7,2.8V54.6z"/>
			<path d="M385.8,54.7c0,1.2,0,1.6,1,1.7l1.2,0.1v0.8c-1,0-2.1-0.1-3.4-0.1c-1.3,0-2.4,0.1-3.4,0.1v-0.8l1.2-0.1c1-0.1,1-0.5,1-1.7
				v-6.4c0-1.8-0.1-2-1.2-2h-1v-0.8c1.6-0.2,3.2-0.7,4.2-1.1l0.2,0.1V54.7z M386.1,40.2c0,0.8-0.7,1.5-1.5,1.5
				c-0.8,0-1.5-0.7-1.5-1.5c0-0.8,0.7-1.5,1.5-1.5C385.3,38.6,386.1,39.4,386.1,40.2z"/>
			<path d="M400.7,49.5c0,0.4,0,0.8-0.1,1.1c-1.6,0.3-3.3,0.4-4.9,0.4h-4c0,3.2,1.6,5.3,4.9,5.3c1.3,0,2.3-0.6,3.4-1.3l0.4,0.3
				l-0.5,0.9c-0.2,0.3-2.5,1.5-4.3,1.5c-4.1,0-6.3-2.6-6.3-6.3c0-2.6,0.7-4.2,1.9-5.2c1.3-1,2.9-1.8,4.3-1.8
				C398.5,44.5,400.7,46.4,400.7,49.5z M391.9,49.6v0.4c1.2,0.1,2.3,0.2,3.4,0.2c1.1,0,2.1,0,3-0.1c0-2.5-0.9-4.6-2.9-4.6
				C393.5,45.4,391.9,46.9,391.9,49.6z"/>
			<path d="M404.1,53.4v1.1c0,1.7,1.9,2.1,3.5,2.1c1.7,0,3.2-0.8,3.2-2.3c0-0.9-0.5-1.6-1.3-1.8c-2.3-0.6-6.3-0.9-6.3-4
				c0-2.9,2.5-4,5.1-4c1.3,0,2.4,0.3,3.5,0.7c-0.1,1-0.1,2-0.1,3.1h-0.8v-0.6c0-1.4-1.6-2.2-3.1-2.2c-2.3,0-2.7,1.3-2.7,2.2
				c0,1.2,0.9,1.8,2.9,2.1c3.2,0.5,4.7,1.4,4.7,3.5c0,3-3,4.5-6,4.5c-1.3,0-2.5-0.2-3.8-0.6c0.3-1.2,0.3-2.5,0.3-3.8H404.1z"/>
		</g>
	</g>
</g>
</svg>
